<?xml version="1.0" encoding="UTF-8"?>
<svg id="Capa_1" xmlns="http://www.w3.org/2000/svg" xmlns:xlink="http://www.w3.org/1999/xlink" version="1.1" viewBox="0 0 1923.6 1080">
  <!-- Generator: Adobe Illustrator 29.1.0, SVG Export Plug-In . SVG Version: 2.1.0 Build 142)  -->
  <defs>
    <style>
      .st0 {
        fill: none;
      }

      .st1 {
        fill: #d39591;
      }

      .st2 {
        fill: #bb6c67;
      }

      .st3 {
        fill: #c87549;
      }

      .st4 {
        fill: #e8d4d0;
      }

      .st5 {
        fill: #409835;
      }

      .st6 {
        fill: #09111c;
      }

      .st7 {
        fill: #6aafe1;
      }

      .st8 {
        fill: #006cb4;
      }

      .st9 {
        opacity: .9;
      }

      .st10 {
        opacity: .2;
      }

      .st11 {
        fill: #252526;
      }

      .st12 {
        fill: #804a96;
      }

      .st13 {
        fill: #51ad32;
      }

      .st14 {
        clip-path: url(#clippath);
      }
    </style>
    <clipPath id="clippath">
      <rect class="st0" width="1923.6" height="1080"/>
    </clipPath>
  </defs>
  <g id="Grupo_1865" class="st9">
    <g class="st14">
      <g>
        <g class="st10">
          <ellipse cx="399.7" cy="1129.3" rx="262.3" ry="48.7"/>
        </g>
        <g>
          <g>
            <path class="st1" d="M293.3,802.7l-5.9,120.4c-4,60.5-4,126.9-3.9,151.5,0,3.1-39.9,38.3-53,39.2-2.9.2-5.7.8-8.1,1.6,1.5,0,3,.2,4.2.4,1.6.1,3.2.5,4.9,0-1.2,1.5-3.3,1.8-5,1.8-1.8,0-3.4-.4-5-.3-1.5,0-3,.2-4.4.6-3,2-5,4.5-5.6,7.6.9-2.4,2.6-4.5,5.1-5.4,1.3-.6,2.8-.7,4.2-.7,1.2,0,2.4,0,3.6,0,2.4-.1,4.8-.3,7.1-1.5-1.7,2-4.4,2.9-6.9,3.5-1.3.3-2.6.4-3.9.5-1.1.2-2.2.2-3.1.7-1.9.8-3.5,2.5-4.4,4.5-.8,2-1.1,4.3,0,6.6,1.6,2.4,4.1,4.2,7.4,4.2l94.6-5.3c4.9,0,8.7-4.2,8.2-9,0-.8-.2-1.5-.2-2.3-2.3-21.2-.5-55.7,4.1-76.5,10.1-45.2,21.9-93.2,23.8-107.3,0-.4,0-.8,0-1.1l12.7-98.2-70.4-35.2ZM228.2,1124.1c-.7.2-1.6.3-2.3.3-.7,0-1.3.1-1.9.2-1.3.2-2.4.6-3.5,1.3-2.1,1.2-3.4,3.4-3,5.8.4,2.4,2.5,4.4,4.9,5.9-2.8-.5-5.8-2.1-6.9-5.3-.6-1.6-.4-3.4.3-4.9.7-1.6,1.9-2.8,3.3-3.7,1.4-.9,2.9-1.3,4.5-1.5.8-.1,1.5-.1,2.3-.1.7,0,1.3,0,1.9,0,2.6-.3,5.2-1.3,7.6-2.8-1.7,2.4-4.2,4.2-7.2,4.9Z"/>
            <path class="st2" d="M225.9,1122c-.8,0-1.5,0-2.3.1-1.5.2-3.1.7-4.5,1.5-1.4.9-2.6,2.1-3.3,3.7-.7,1.5-.8,3.4-.3,4.9,1.1,3.2,4.1,4.9,6.9,5.3-2.4-1.5-4.5-3.5-4.9-5.9-.4-2.4.9-4.6,3-5.8,1-.6,2.2-1.1,3.5-1.3.6-.1,1.3-.2,1.9-.2.7,0,1.5-.1,2.3-.3,3-.8,5.6-2.6,7.2-4.9-2.5,1.5-5.1,2.5-7.6,2.8-.7,0-1.2,0-1.9,0Z"/>
            <path class="st2" d="M213.2,1126.9c.9-2,2.4-3.7,4.4-4.5.9-.5,2-.6,3.1-.7,1.3,0,2.6-.2,3.9-.5,2.5-.5,5.2-1.4,6.9-3.5-2.3,1.1-4.7,1.3-7.1,1.5-1.2,0-2.4,0-3.6,0-1.4,0-2.8.1-4.2.7-2.4,1-4.2,3.1-5.1,5.4-.1.6-.2,1.2-.2,1.8,0,2.3.7,4.5,1.8,6.3-1-2.3-.7-4.6,0-6.6Z"/>
            <path class="st2" d="M226.5,1117.6c1.7,0,3.8-.3,5-1.8-1.7.5-3.3.1-4.9,0-1.3-.2-2.7-.4-4.2-.4-2,.7-3.8,1.5-5.3,2.5,1.4-.4,2.9-.6,4.4-.6,1.6,0,3.2.3,5,.3Z"/>
          </g>
          <g>
            <path class="st1" d="M426.1,837.8l12.7,98.2c0,.4,0,.8,0,1.1,1.9,14.1,13.7,62.1,23.8,107.3,4.6,20.9,6.4,55.3,4.1,76.5,0,.8-.2,1.5-.2,2.3-.5,4.8,3.3,9,8.2,9l94.6,5.3c3.3,0,5.8-1.7,7.4-4.2,1-2.3.7-4.6,0-6.6-.9-2-2.4-3.7-4.4-4.5-.9-.5-2-.6-3.1-.7-1.3,0-2.6-.2-3.9-.5-2.5-.5-5.2-1.4-6.9-3.5,2.3,1.1,4.7,1.3,7.1,1.5,1.2,0,2.4,0,3.6,0,1.4,0,2.8.1,4.2.7,2.4,1,4.2,3.1,5.1,5.4-.6-3-2.6-5.6-5.6-7.6-1.4-.4-2.9-.6-4.4-.6-1.6,0-3.2.3-5,.3-1.7,0-3.8-.3-5-1.8,1.7.5,3.3.1,4.9,0,1.3-.2,2.7-.4,4.2-.4-2.5-.8-5.2-1.4-8.1-1.6-13.2-.9-53.1-36.1-53-39.2.1-24.6,0-91-3.9-151.5l-5.9-120.4-70.4,35.2ZM554.3,1119.2c2.5,1.5,5.1,2.5,7.6,2.8.7,0,1.2,0,1.9,0,.8,0,1.5,0,2.3.1,1.5.2,3.1.7,4.5,1.5,1.4.9,2.6,2.1,3.3,3.7.7,1.5.8,3.4.3,4.9-1.1,3.2-4.1,4.9-6.9,5.3,2.4-1.5,4.5-3.5,4.9-5.9.4-2.4-.9-4.6-3-5.8-1-.6-2.2-1.1-3.5-1.3-.6-.1-1.3-.2-1.9-.2-.7,0-1.5-.1-2.3-.3-3-.8-5.6-2.6-7.2-4.9Z"/>
            <path class="st2" d="M563.8,1122c.8,0,1.5,0,2.3.1,1.5.2,3.1.7,4.5,1.5,1.4.9,2.6,2.1,3.3,3.7.7,1.5.8,3.4.3,4.9-1.1,3.2-4.1,4.9-6.9,5.3,2.4-1.5,4.5-3.5,4.9-5.9.4-2.4-.9-4.6-3-5.8-1-.6-2.2-1.1-3.5-1.3-.6-.1-1.3-.2-1.9-.2-.7,0-1.5-.1-2.3-.3-3-.8-5.6-2.6-7.2-4.9,2.5,1.5,5.1,2.5,7.6,2.8.7,0,1.2,0,1.9,0Z"/>
            <path class="st2" d="M576.5,1126.9c-.9-2-2.4-3.7-4.4-4.5-.9-.5-2-.6-3.1-.7-1.3,0-2.6-.2-3.9-.5-2.5-.5-5.2-1.4-6.9-3.5,2.3,1.1,4.7,1.3,7.1,1.5,1.2,0,2.4,0,3.6,0,1.4,0,2.8.1,4.2.7,2.4,1,4.2,3.1,5.1,5.4.1.6.2,1.2.2,1.8,0,2.3-.7,4.5-1.8,6.3,1-2.3.7-4.6,0-6.6Z"/>
            <path class="st2" d="M563.3,1117.6c-1.7,0-3.8-.3-5-1.8,1.7.5,3.3.1,4.9,0,1.3-.2,2.7-.4,4.2-.4,2,.7,3.8,1.5,5.3,2.5-1.4-.4-2.9-.6-4.4-.6-1.6,0-3.2.3-5,.3Z"/>
          </g>
          <path class="st3" d="M581.2,417.3s-16.2,39.4-31.8,67.2c8.4,10,16.9,20.1,26.7,28.5,15.6-34.5,28.4-73.8,35.4-90.1,2.6-6-27.3,20.8-30.3-5.7Z"/>
          <g>
            <path class="st1" d="M582.3,400.8l.5,27,.4,19.2,15.6,6.3,9.3-22.8s-.1-2.2,8.3-6.6c8.5-4.4,13.5-17.8,15.1-22.8l16.7-26c1.3-2,.7-4.7-1.4-6-2-1.2-4.6-.6-5.9,1.4l-15.3,22.2c-.3.4-.7.5-1.1.3-.4-.2-.6-.8-.3-1.2l17.4-32.5c1.3-2.3.5-5.3-1.9-6.6-2.3-1.3-5.2-.3-6.5,1.9l-17.5,30.3c-.2.3-.5.5-.9.4-.6-.1-.9-.7-.6-1.2l16.9-38c1.4-2.6.5-5.8-2.1-7.2-2.4-1.4-5.5-.6-7.1,1.7l-17.4,36.5c-.8,1.3-1.8.3-1.7-1.2l8.5-32.1c.1-2.2-1.1-4.1-3.1-4.9-.4-.2-.8-.3-1.2-.3-2.6-.4-5,1.4-5.5,3.9l-9.8,29.9-.8,2.6-1.2,3.8c-1.1,1.6-2.2,3.9-4,6.8-1,1.5-2.1,3.2-3.6,4.9-2.7,3.3-1.6,7.2.4,10.4Z"/>
            <path class="st2" d="M582.3,400.8l.5,27c5.7,2,11.4,1,16-6.3,16.6-26.8-15.4-32.9-16.8-31.1-2.7,3.3-1.6,7.2.4,10.4Z"/>
            <path class="st1" d="M557.8,378.5c2.5-2.2,7.1-4.4,12.5-2.3,6.7,2.6,8.4,7.5,8.4,7.5,0,0,4.8,1.6,8.5,6.3,0,0,20.8,8.5,12.8,29.1l-11.4,29.5-17.6-6.8,9.2-23.9-2.3-9.9c-1.3-3.6-3.9-9.8-6.9-13.8,0,0-8.1-8.5-13.1-12.4-1.1-.8-1.1-2.5-.1-3.4Z"/>
            <path class="st2" d="M595.2,378.9c27.1,3.4,32.9,20.2,33.7,21.5-7.9-14.3-33.7-21.5-33.7-21.5Z"/>
          </g>
          <g>
            <rect class="st1" x="316.8" y="562.8" width="152.4" height="76.8"/>
            <g>
              <path class="st7" d="M512.3,845.8c0-.7,0-1.3,0-2,0-.6,0-1.1,0-1.7,0-.4,0-.9,0-1.3,0-.7,0-1.5,0-2.2,0-.6,0-1.1,0-1.7,0-14.2-.7-28.5-1.8-42.9,0-.6,0-1.1-.1-1.7,0-1.2-.2-2.3-.3-3.5,0-.6-.1-1.3-.2-1.9,0-.5,0-1-.1-1.4,0-.7-.1-1.4-.2-2,0-.5-.1-1.1-.2-1.6-.3-3-.6-6-.9-9.1-1.2-11.1-2.7-22.1-4.5-33.1,0-.5-.2-1.1-.3-1.6-.2-1.1-.4-2.3-.6-3.4-.1-.6-.2-1.2-.3-1.9-.2-1.1-.4-2.3-.6-3.4,0-.5-.2-1.1-.3-1.6-2.5-14.1-5.5-27.9-8.8-41.3-.1-.5-.3-1-.4-1.6-.3-1.1-.6-2.2-.8-3.3-.2-.6-.3-1.2-.5-1.9-.3-1.1-.6-2.2-.9-3.3-.1-.5-.3-1.1-.4-1.6-3.7-14.1-7.8-27.6-12.2-40.4-.2-.5-.4-1-.5-1.5-.4-1.1-.8-2.2-1.1-3.3-.2-.5-.4-1-.5-1.6-.5-1.5-1.1-3-1.6-4.5-30.2,6.2-58.3,8.3-82.5,8.3-41.1,0-71-6-81.3-8.4-.6,1.6-1.3,3.2-1.9,4.8-.2.5-.4,1-.6,1.5-.4,1.1-.8,2.2-1.2,3.3-.2.5-.4,1-.6,1.5-4.6,12.7-8.9,26.2-12.7,40.3-.1.5-.3,1.1-.4,1.6-.3,1.1-.6,2.2-.9,3.3-.2.6-.3,1.2-.5,1.9-.3,1.1-.6,2.2-.8,3.4-.1.5-.3,1-.4,1.6-3.3,13.4-6.2,27.3-8.7,41.3,0,.5-.2,1.1-.3,1.6-.2,1.1-.4,2.3-.6,3.4-.1.6-.2,1.2-.3,1.9-.2,1.1-.4,2.3-.6,3.4,0,.5-.2,1.1-.3,1.6-1.7,10.9-3.2,22-4.4,33.1-.3,3-.6,6-.9,9.1,0,.5-.1,1.1-.2,1.6,0,.7-.1,1.3-.2,2,0,.5,0,1-.1,1.4,0,.6-.1,1.3-.2,1.9,0,1.2-.2,2.3-.3,3.5,0,.6,0,1.1-.1,1.7-1.1,14.4-1.7,28.7-1.8,42.9,0,.6,0,1.1,0,1.7,0,.7,0,1.5,0,2.2s0,.9,0,1.3c0,.6,0,1.1,0,1.7,0,.5,0,1,0,1.6,12.8,3.2,38.8,8.8,72.2,12.1,42.3,4.2,105.1,5.4,168.5-11.7Z"/>
              <path class="st7" d="M472.7,619.4c-.8-2.2-1.6-4.3-2.4-6.5h0c-50.5,8.5-102.1,8.6-152.7.5l-3-.5c-.9,2.1-1.8,4.2-2.7,6.3,17,3.9,81.3,16.2,160.8.1Z"/>
              <path class="st7" d="M507.4,851.5c-38.7,9.8-77,13-110.3,13s-38.3-1.1-53.9-2.7c-30.5-3-54.8-8-68.7-11.3,36.8,20.1,192.2,20.5,232.9,1Z"/>
              <path class="st8" d="M474.2,623.4c-.5-1.4-1-2.7-1.5-4-79.4,16.1-143.7,3.8-160.8-.1-.5,1.3-1.1,2.7-1.6,4,10.4,2.4,40.3,8.4,81.3,8.4s52.3-2.1,82.5-8.3Z"/>
              <path class="st8" d="M397.1,864.4c33.3,0,71.6-3.2,110.3-13,1.8-.9,3.5-1.8,4.8-2.7,0-1,0-1.9,0-2.9-63.4,17.1-126.2,15.9-168.5,11.7-33.4-3.3-59.4-9-72.2-12.1,0,1.1,0,2.2,0,3.3.8.6,1.8,1.2,2.9,1.8,13.9,3.3,38.3,8.2,68.7,11.3,15.5,1.5,33.8,2.7,53.9,2.7Z"/>
            </g>
            <rect class="st6" x="322.1" y="306.9" width="129" height="99.1"/>
            <path class="st6" d="M313.3,372.9s0,25.4-11.5,37c0,0,16.2-13.9,32.3-13.9v-33.2c-6.9-.1-13.9-.3-20.8-.3v10.5Z"/>
            <path class="st6" d="M442.7,361.9v34.2s18.5,2.3,32.3,13.9c0,0-11.5-16.2-11.5-37v-13c-6.9.8-13.9,1.5-20.8,2Z"/>
            <path class="st5" d="M280.6,432.3c-.5,3-.7,6-.5,9.1l20.3,121.2c11.3-46.1,22.7-101.6-19.9-130.3Z"/>
            <path class="st13" d="M498.3,433.4c-2.3-16.2-15.5-30-34.1-34.7-44.4-11.3-105.3-11.3-149.7,0-18.2,4.6-31.1,17.9-33.9,33.6,42.5,28.7,31.2,84.2,19.9,130.3l1.1,24.6s119.5,20.9,175.5,0l1.6-24.4c-9.5-41.6-3.2-92.9,19.6-129.4Z"/>
            <path class="st5" d="M478.7,562.8l19.9-121.4c.2-2.7,0-5.4-.3-8-22.7,36.5-29.1,87.8-19.6,129.4Z"/>
            <g>
              <path class="st1" d="M210.2,688.9l13-25.9-25.2-12.6-14.4,26.4c-1.1.4-2.3.9-3.4,1.6-7.3,4.6-12.6,13.1-16,19.2-3.3,6-8.6,16.8-10.7,22.9-.4,1.2-.7,2.5-.7,3.7,0,.8,1.9,4.5,6-.4,4.1-4.1,7.3-10.8,7.9-10.7-2,3.5-4,7.1-5.9,10.6-1.4,2.5-3.7,6.9-3.4,9.7.7,5.7,6.9,3.8,8.8.8,3.6-5.5,9.7-19.5,10.8-19.8-1.9,4.6-4,9-6.2,13.4-1.1,2.2-2.2,4.3-3.4,6.4-.9,1.7-2,3.3-2.4,5.2-.3,1.4.3,2.7,1.7,3.3,4.4,1.7,10.5-3.4,19.6-25.7-.7,8.7-12.3,26.1-12.7,27.8-.4,1.8,0,3.7,1.8,4.6,2.3,1.2,6.1.4,8.1-1.5,8.2-7.7,13.8-26.2,16.7-32.6,1.3,2.3,3.8,10.5,6.7,13,1.1,1,5.2,1.5,6.3.3.4-.5.5-1.1.6-1.7,1.1-9.1-3.6-17.3-3.4-26.4.1-4,1.3-7.9,0-11.6Z"/>
              <path class="st4" d="M213,728.6s-4.6.6-5.6-9.4c0,0,2.3-2.9,5.5-2.7,0,0,2.5,6.9.1,12Z"/>
              <path class="st4" d="M168.9,736.1c.8.3,1.3,1.2,1.3,2,0,1.1-.7,2.1-1.2,3.1-.4.7-1.2,1.9-2.2,1.7-.8-.2-1.9-1-2.2-1.7-.3-.9,1.2-5.7,4.3-5Z"/>
              <path class="st4" d="M161.8,729c.9.3,1.5,1.4,1.5,2.3,0,1.3-.7,2.4-1.3,3.4-.4.8-1.2,2.1-2.4,1.9-.9-.2-2.2-1.1-2.5-2-.4-1,1.2-6.4,4.7-5.6Z"/>
              <path class="st4" d="M155.6,720.2c.7,0,1.3.7,1.4,1.3.2.9-.3,1.7-.6,2.5-.2.6-.7,1.7-1.6,1.7-.7,0-1.8-.4-2.1-.9-.4-.6.2-4.6,2.9-4.6Z"/>
              <path class="st4" d="M179,738.5c1.3,0,2.3,1,2.6,2.1.3,1.6-.4,3.4-.9,5-.4,1.3-1.2,3.3-2.8,3.6-1.2.2-3.2-.4-3.8-1.3-.8-1.1.1-8.7,5-9.4Z"/>
            </g>
            <path class="st13" d="M287.5,409.9c-7,4.8-12.4,11.8-15.6,19.7-11.6,27.8-28.6,64.9-44.8,102.2-14,32.3-27,83.4-38.9,114.2-2,5.3-5.1,12.2-6.3,18.5,13.2,9.9,28.3,15.6,43,21.2,2.7-2.4,5-5.6,6.9-9.1,24-35.1,31.2-80.9,44.7-106.4,17.2-32.4,39.1-87.2,44.6-103.3,0,0,26.4-33.9,31.3-68.3-24.3-3.6-48.7.2-64.8,11.3Z"/>
            <g>
              <path class="st5" d="M530.6,480.9c-9.9,23-11.7,46.2-12,71,3.5-4.2,6.1-9.2,8.4-14.7,2.1-4.9,3.9-10.1,7-14.4.8-1,10.7-10.1,11.9-7.5-5.2-11.7-10.4-23.3-15.4-34.4Z"/>
              <path class="st13" d="M508.1,429.5c-3.3-7.9-8.6-14.8-15.7-19.7-16.2-11.1-37.1-18.1-61.5-14.4,5,34.4,28.1,65.2,28.1,65.2,11.7,34.2,25.2,67.7,40.2,100.5.2.4.4.8.7.9.4.2.8.1,1.2,0,7.7-1.3,13.2-5.1,17.4-10.2.3-24.8,2.1-48,12-71-8.4-18.9-16.3-36.5-22.5-51.4Z"/>
              <path class="st13" d="M562.1,436.8c-13.3,30.2-40.1,75.7-52.9,108.4-2.2,5.5-11.8-4-11.8,1.9,0,24.7,21.4,40.2,30.5,40.6,15.9.7,30.7-12.1,38.3-25,21.1-35.5,35.9-77.9,48.3-117,.8-2.5,1.3-5,1.5-7.4-13.4-9.3-28.9-16.1-46.4-17.6-3.1,5-5.5,11.3-7.6,15.9Z"/>
            </g>
            <g>
              <g>
                <g>
                  <path class="st1" d="M333.5,303.4c.9,8,4,18-.8,18.6-4.8.6-15.7-8.4-16.6-16.4-.9-8-2.1-18.2,6.6-19.3,4.8-.6,9.9,9.1,10.8,17.1Z"/>
                  <path class="st1" d="M441.9,303.8c-1,8-4.1,17.9.7,18.6,4.8.6,15.7-8.3,16.7-16.3,1-8,2.2-18.2-6.5-19.3-4.8-.6-9.9,9-10.9,17Z"/>
                </g>
                <g>
                  <path class="st2" d="M320.2,294.5c2.2-.7,4.7.7,6.2,2.5,1.6,1.9,2.4,4.2,2.9,6.4.4,2.3.4,4.6.2,6.8,0,.5-.1,1.4-.5,2.1-.2.4-.5.8-1,1.1-.5.3-1.1.3-1.5.1-1.5-.7-1.9-1.7-2.4-2.8,1,.4,2.1,1,2.7.8.2-.2-.2,0-.1-.3,0-.3,0-.5-.2-1.1-.4-2.1-.5-4.1-1-6-.3-1.9-.8-3.8-1.5-5.5-.8-1.7-1.8-3.2-3.7-4.3Z"/>
                  <path class="st2" d="M456.1,295c-2.2-.7-4.7.6-6.2,2.5-1.6,1.9-2.4,4.2-2.9,6.4-.5,2.3-.5,4.5-.2,6.8,0,.5,0,1.4.5,2.1.2.4.5.8,1,1.1.5.3,1.1.3,1.5.1,1.5-.7,1.9-1.7,2.4-2.8-1,.4-2.1,1-2.7.8-.2-.2.2,0,.1-.3,0-.3,0-.5.2-1.1.4-2,.6-4.1,1-6,.4-1.9.9-3.8,1.6-5.4.8-1.7,1.8-3.2,3.7-4.3Z"/>
                </g>
              </g>
              <path class="st1" d="M429,393.5c-11.5,0-20.8-13.7-20.8-30.6v-30.2c-6.2-3.3-34.7-3.3-40.9,0v30.2c0,16.9-9.3,30.6-20.8,30.6h0c-2.8,0-4.8,2.5-4.3,5.2,4.9,22.6,23.4,39.4,45.5,39.4s40.6-16.8,45.5-39.4c.6-2.7-1.5-5.2-4.3-5.2h0Z"/>
              <ellipse class="st2" cx="387.7" cy="356.5" rx="22.9" ry="28.2"/>
              <path class="st1" d="M387.7,373.4h0c-29.3,0-55.2-28.9-55.2-58.6v-42.6c0-29.7,24.7-53.8,55.2-53.8h0c30.5,0,55.2,24.1,55.2,53.8v42.6c0,29.7-25.5,58.6-55.2,58.6Z"/>
              <path class="st6" d="M350.2,280.3c.8-1.9,2.3-3.4,4-4.6,1.7-1.2,3.9-1.9,6.1-1.9,2.2,0,4.5.6,6.2,1.9.9.5,1.6,1.4,2.3,2.1.6.8,1.2,1.7,1.6,2.6-1-.4-1.8-.9-2.6-1.3l-1.3-.6-.6-.3-.6-.2c-1.6-.7-3.3-.9-4.9-.9-1.6,0-3.3.3-5,.9-1.7.6-3.4,1.4-5.2,2.3Z"/>
              <path class="st6" d="M424,280.3c-.8-1.9-2.3-3.4-4-4.6-1.7-1.2-3.9-1.9-6.1-1.9-2.2,0-4.5.6-6.2,1.9-.9.5-1.6,1.4-2.3,2.1-.6.8-1.2,1.7-1.6,2.6,1-.4,1.8-.9,2.6-1.3l1.3-.6.6-.3.6-.2c1.6-.7,3.3-.9,4.9-.9,1.6,0,3.3.3,5,.9,1.7.6,3.4,1.4,5.2,2.3Z"/>
              <path class="st2" d="M388.7,344.6c-11.7,0-20.6-7.5-20.7-7.6-.7-.6-.8-1.6-.2-2.3.6-.7,1.6-.8,2.3-.2.7.6,18,15.2,35.6,0,.7-.6,1.7-.5,2.3.2.6.7.5,1.7-.2,2.3-6.6,5.7-13.2,7.6-19.1,7.6Z"/>
            </g>
            <path class="st11" d="M463.5,273.3c0-39.4-31.9-71.3-71.3-71.3h-7.4c-39.4,0-71.3,31.9-71.3,71.3v92.3c6.9,0,13.9.2,20.8.3v-85.5s1.8-1,5-2.5c1-4.5,3.3-14.3,6.8-22.9v20.1c4.9-1.9,11-3.8,18.3-5.4.4-7.9,1.9-18.5,7.1-26.2,0,0-1.5,9.3-2.1,25.3,11.1-1.9,24.2-2.5,38.5-.1-.6-15.9-2.1-25.2-2.1-25.2,5.1,7.7,6.7,18.2,7.1,26.1,5.9,1.3,12.1,3.1,18.3,5.5v-20.1c3.4,8.6,5.8,18.5,6.8,23,1.6.8,3.3,1.6,4.9,2.4v84.5c6.9-.5,13.8-1.2,20.8-2v-89.7Z"/>
            <path class="st2" d="M388.7,322.4c-3,0-5.8-.4-8.3-1.2,1.6,3,4.7,5,8.3,5s6.7-2,8.3-5c-2.5.8-5.3,1.2-8.3,1.2Z"/>
            <path class="st6" d="M368.5,290.4c-1.4,0-2.6,1-3.4,2.6l-3.5,1.7,2.8.9c0,.3,0,.6,0,.9,0,3.4,1.8,6.1,4.1,6.1,2.3,0,4.1-2.7,4.1-6.1,0-3.4-1.8-6.1-4.1-6.1Z"/>
            <path class="st6" d="M406.7,290.4c1.4,0,2.6,1,3.4,2.6l3.5,1.7-2.8.9c0,.3,0,.6,0,.9,0,3.4-1.8,6.1-4.1,6.1-2.3,0-4.1-2.7-4.1-6.1,0-3.4,1.8-6.1,4.1-6.1Z"/>
            <path class="st8" d="M389.7,530.8c-1.8,0-3.4-1.3-3.6-3.2-.3-2,1.2-3.9,3.2-4.1.3,0,.6,0,.9-.1,2-.3,3.9,1,4.2,3,.3,2-1,3.9-3,4.2-.4,0-.8.1-1.2.2-.2,0-.3,0-.5,0ZM379.4,530c-.3,0-.6,0-1-.1-.4-.1-.8-.2-1.1-.3-1.9-.6-3-2.7-2.4-4.6.6-1.9,2.7-3,4.6-2.4.3,0,.6.2.9.3,2,.5,3.1,2.6,2.6,4.5-.4,1.6-1.9,2.7-3.5,2.7ZM400.5,527c-1.3,0-2.5-.7-3.2-1.8-1-1.8-.4-4,1.4-5,.3-.2.5-.3.8-.5,1.7-1.1,4-.5,5,1.2,1.1,1.7.5,4-1.2,5-.3.2-.7.4-1,.6-.6.3-1.2.5-1.8.5ZM369.1,525c-.7,0-1.5-.2-2.1-.7-.3-.2-.6-.5-.9-.7-1.6-1.2-1.9-3.5-.7-5.1,1.2-1.6,3.5-1.9,5.1-.7.3.2.5.4.8.6,1.6,1.2,2,3.5.8,5.1-.7,1-1.8,1.5-3,1.5ZM409.5,519.9c-.9,0-1.8-.3-2.6-1-1.5-1.4-1.5-3.7,0-5.2.2-.2.4-.5.7-.7,1.4-1.5,3.7-1.6,5.2-.2,1.5,1.4,1.6,3.7.2,5.2-.3.3-.5.5-.8.8-.7.7-1.7,1.1-2.6,1.1ZM360.7,517.1c-1,0-2.1-.4-2.8-1.3-.2-.3-.5-.6-.7-.9-1.3-1.6-1-3.9.5-5.2,1.6-1.3,3.9-1,5.2.5.2.3.4.5.6.8,1.3,1.5,1.1,3.9-.4,5.2-.7.6-1.5.9-2.4.9ZM416.7,510.8c-.7,0-1.4-.2-2-.6-1.7-1.1-2.2-3.4-1-5.1.2-.3.4-.6.5-.8,1.1-1.7,3.4-2.2,5.1-1.1,1.7,1.1,2.2,3.4,1.1,5.1-.2.3-.4.6-.6.9-.7,1.1-1.9,1.7-3.1,1.7ZM354.1,507.7c-1.3,0-2.5-.6-3.2-1.8-.2-.3-.4-.6-.6-.9-1-1.8-.4-4,1.4-5,1.8-1,4-.4,5,1.4.2.3.3.6.5.9,1,1.7.5,4-1.3,5-.6.3-1.2.5-1.9.5ZM422.3,500.8c-.5,0-1.1-.1-1.6-.4-1.8-.9-2.6-3.1-1.7-4.9.1-.3.3-.6.4-.9.9-1.8,3-2.6,4.9-1.8,1.8.9,2.6,3,1.8,4.9-.2.3-.3.7-.5,1-.6,1.3-1.9,2.1-3.3,2.1ZM348.9,497.4c-1.4,0-2.8-.8-3.4-2.2-.1-.3-.3-.7-.4-1-.8-1.9,0-4,2-4.8,1.9-.8,4,0,4.8,2l.4.9c.8,1.9,0,4-1.9,4.8-.5.2-1,.3-1.5.3ZM426.7,490.1c-.4,0-.8,0-1.2-.2-1.9-.7-2.9-2.8-2.3-4.7l.3-1c.7-1.9,2.7-2.9,4.7-2.3,1.9.7,2.9,2.7,2.3,4.7l-.4,1c-.5,1.5-1.9,2.5-3.5,2.5ZM344.9,486.6c-1.6,0-3-1-3.5-2.6l-.3-1c-.6-1.9.5-4,2.4-4.6,1.9-.6,4,.5,4.6,2.4l.3,1c.6,1.9-.5,4-2.4,4.6-.4.1-.7.2-1.1.2ZM430,479.1c-.3,0-.6,0-.9-.1-2-.5-3.2-2.5-2.7-4.5l.2-1c.5-2,2.5-3.2,4.4-2.7,2,.5,3.2,2.5,2.7,4.4l-.3,1c-.4,1.7-1.9,2.8-3.6,2.8ZM341.9,475.4c-1.7,0-3.2-1.2-3.6-2.9,0-.4-.2-.7-.2-1.1-.4-2,.8-3.9,2.8-4.4,2-.4,3.9.8,4.4,2.8,0,.3.1.7.2,1,.4,2-.8,3.9-2.8,4.4-.3,0-.5,0-.8,0ZM432.4,467.8c-.2,0-.4,0-.6,0-2-.3-3.3-2.2-3-4.2l.2-1c.3-2,2.2-3.4,4.2-3,2,.3,3.4,2.2,3,4.2,0,.4-.1.7-.2,1.1-.3,1.8-1.9,3-3.6,3ZM339.8,464.1c-1.8,0-3.4-1.3-3.6-3.1v-1c-.4-2,1-3.9,3-4.1,2-.3,3.9,1.1,4.1,3.1v1c.4,2-1,3.9-3,4.2-.2,0-.4,0-.5,0ZM433.9,456.4c-.1,0-.2,0-.3,0-2-.2-3.5-2-3.3-4v-1c.3-2,2.1-3.5,4.1-3.3,2,.2,3.5,2,3.3,4v1.1c-.3,1.9-1.9,3.3-3.7,3.3ZM338.5,452.6c-1.9,0-3.5-1.5-3.7-3.4v-1.1c-.2-2,1.3-3.8,3.3-3.9,2-.1,3.8,1.4,3.9,3.4v1c.2,2-1.3,3.8-3.3,3.9,0,0-.2,0-.3,0ZM434.6,444.8s0,0,0,0c-2,0-3.6-1.7-3.6-3.8v-1c0-2,1.8-3.6,3.8-3.6,2,0,3.6,1.7,3.6,3.8v1.1c0,2-1.7,3.6-3.7,3.6ZM338.1,441.1c-2,0-3.7-1.6-3.7-3.6v-1.1c0-2,1.6-3.7,3.7-3.7h0c2,0,3.7,1.6,3.7,3.7v1c0,2-1.6,3.7-3.6,3.7h0ZM434.6,433.3c-2,0-3.6-1.5-3.7-3.5v-1c-.1-2,1.4-3.7,3.4-3.8,2,0,3.7,1.5,3.8,3.5v1.1c.1,2-1.4,3.7-3.5,3.8,0,0-.1,0-.2,0ZM338.4,429.6c0,0-.2,0-.3,0-2-.1-3.5-1.9-3.4-3.9v-1.1c.2-2,2-3.6,4-3.4,2,.2,3.5,1.9,3.4,3.9v1c-.2,1.9-1.8,3.4-3.7,3.4ZM433.5,421.8c-1.8,0-3.4-1.3-3.6-3.1v-1c-.5-2,.9-3.9,2.9-4.2,2-.3,3.9,1.1,4.2,3.1l.2,1.1c.3,2-1.1,3.9-3.1,4.2-.2,0-.4,0-.5,0ZM339.8,418.2c-.2,0-.4,0-.7,0-2-.4-3.3-2.3-2.9-4.3,0-.4.1-.7.2-1.1.4-2,2.3-3.3,4.3-2.9,2,.4,3.3,2.3,2.9,4.3,0,.3-.1.7-.2,1-.3,1.8-1.9,3-3.6,3ZM431.1,410.6c-1.6,0-3-1-3.5-2.6,0-.3-.2-.6-.3-.9-.6-1.9.4-4,2.3-4.6,1.9-.6,4,.4,4.6,2.3.1.4.2.7.3,1.1.6,1.9-.5,4-2.4,4.6-.4.1-.7.2-1.1.2ZM342.8,407.1c-.4,0-.9,0-1.3-.2-1.9-.7-2.8-2.8-2.1-4.7.1-.4.3-.7.4-1.1.8-1.9,2.9-2.8,4.8-2,1.9.8,2.8,2.9,2,4.8-.1.3-.2.6-.4.9-.6,1.5-2,2.4-3.4,2.4ZM426.5,400.1c-1.2,0-2.4-.6-3.1-1.7-.2-.3-.3-.5-.5-.8-1.1-1.7-.6-4,1.1-5.1,1.7-1.1,4-.6,5.1,1.1.2.3.4.6.6,1,1.1,1.7.5,4-1.2,5-.6.4-1.3.5-1.9.5ZM348.3,397c-.8,0-1.6-.2-2.2-.8-1.6-1.2-1.9-3.5-.7-5.1.2-.3.5-.6.7-.9,1.3-1.6,3.6-1.8,5.2-.5,1.6,1.3,1.8,3.6.5,5.2-.2.2-.4.5-.6.7-.7.9-1.8,1.4-2.9,1.4Z"/>
            <path class="st12" d="M381.8,509.6c-.3,0-.5,0-.8,0-.4,0-.8-.2-1.2-.3-2-.5-3.1-2.6-2.6-4.5.5-2,2.6-3.1,4.5-2.6.3,0,.6.1.8.2,2,.4,3.2,2.4,2.8,4.4-.4,1.7-1.9,2.9-3.6,2.9ZM392.2,509.3c-1.6,0-3.1-1-3.5-2.7-.6-1.9.6-4,2.5-4.5.3,0,.6-.2.8-.3,1.9-.7,4,.4,4.7,2.3.7,1.9-.4,4-2.3,4.7-.4.1-.8.3-1.2.4-.3,0-.7.1-1,.1ZM371.6,504.5c-.8,0-1.6-.3-2.3-.8-.3-.2-.6-.5-.9-.7-1.6-1.3-1.8-3.6-.4-5.2,1.3-1.6,3.6-1.7,5.2-.4.2.2.5.4.7.6,1.6,1.3,1.9,3.6.6,5.2-.7.9-1.8,1.4-2.9,1.4ZM402.1,503.7c-1,0-2.1-.4-2.8-1.3-1.3-1.5-1.1-3.9.4-5.2.2-.2.5-.4.7-.6,1.5-1.4,3.8-1.2,5.2.3,1.4,1.5,1.2,3.8-.3,5.2-.3.3-.6.5-.9.8-.7.6-1.5.9-2.4.9ZM363.7,496.2c-1.1,0-2.2-.5-3-1.5-.2-.3-.4-.6-.7-.9-1.2-1.7-.8-3.9.9-5.1,1.7-1.2,3.9-.8,5.1.9.2.3.4.5.6.8,1.2,1.6.9,3.9-.8,5.1-.7.5-1.4.7-2.2.7ZM409.8,495.1c-.7,0-1.5-.2-2.1-.7-1.7-1.2-2.1-3.5-.9-5.1.2-.3.4-.5.6-.8,1.1-1.7,3.4-2.1,5.1-1,1.7,1.1,2.1,3.4,1,5.1-.2.3-.4.6-.6.9-.7,1-1.9,1.6-3,1.6ZM357.8,486.3c-1.3,0-2.6-.7-3.3-2-.2-.3-.3-.7-.5-1-.9-1.8-.1-4,1.7-4.9,1.8-.9,4-.1,4.9,1.7.1.3.3.6.4.9.9,1.8.2,4-1.6,4.9-.5.3-1.1.4-1.6.4ZM415.5,485.1c-.5,0-1.1-.1-1.6-.4-1.8-.9-2.6-3.1-1.7-4.9.1-.3.3-.6.4-.9.9-1.8,3-2.6,4.9-1.8,1.8.9,2.6,3,1.8,4.9-.2.3-.3.7-.5,1-.6,1.3-1.9,2.1-3.3,2.1ZM353.3,475.7c-1.5,0-2.9-.9-3.5-2.4l-.4-1c-.7-1.9.4-4,2.3-4.7,1.9-.7,4,.4,4.7,2.3l.3,1c.7,1.9-.3,4-2.2,4.7-.4.1-.8.2-1.2.2ZM419.9,474.4c-.4,0-.8,0-1.2-.2-1.9-.7-2.9-2.7-2.3-4.7l.3-1c.6-1.9,2.7-3,4.6-2.3,1.9.6,3,2.7,2.3,4.6l-.3,1c-.5,1.5-1.9,2.5-3.5,2.5ZM349.9,464.6c-1.6,0-3.1-1.1-3.6-2.8l-.3-1c-.5-2,.7-4,2.7-4.4,2-.5,4,.7,4.4,2.7l.2,1c.5,2-.7,4-2.7,4.4-.3,0-.6.1-.9.1ZM423.1,463.3c-.3,0-.6,0-.9-.1-2-.5-3.2-2.5-2.7-4.4l.2-1c.5-2,2.4-3.2,4.4-2.8,2,.5,3.2,2.4,2.8,4.4l-.2,1c-.4,1.7-1.9,2.8-3.6,2.8ZM347.6,453.3c-1.8,0-3.3-1.3-3.6-3.1l-.2-1.1c-.3-2,1.1-3.9,3.1-4.2,2-.3,3.9,1.1,4.2,3.1l.2,1c.3,2-1,3.9-3,4.2-.2,0-.4,0-.6,0ZM425.3,452c-.2,0-.4,0-.6,0-2-.3-3.4-2.2-3.1-4.2l.2-1c.3-2,2.2-3.4,4.2-3.1,2,.3,3.4,2.2,3.1,4.2l-.2,1.1c-.3,1.8-1.8,3.1-3.6,3.1ZM346.2,441.9c-1.9,0-3.5-1.4-3.7-3.3v-1.1c-.3-2,1.2-3.8,3.3-4,2-.2,3.8,1.3,4,3.4v1c.3,2-1.2,3.8-3.2,4-.1,0-.2,0-.3,0ZM426.6,440.5c0,0-.2,0-.3,0-2-.2-3.5-1.9-3.4-3.9v-1c.2-2,2-3.5,4-3.4,2,.1,3.5,1.9,3.4,3.9v1.1c-.2,1.9-1.8,3.4-3.7,3.4ZM345.6,430.4c-2,0-3.6-1.6-3.7-3.6v-1.1c0-2,1.6-3.7,3.6-3.7,2,0,3.7,1.6,3.7,3.6v1c0,2-1.6,3.7-3.6,3.7,0,0,0,0,0,0ZM427.1,429h0c-2,0-3.7-1.7-3.6-3.7v-1c0-2,1.7-3.6,3.7-3.6h0c2,0,3.7,1.7,3.6,3.7v1.1c0,2-1.7,3.6-3.7,3.6ZM345.8,418.9c0,0-.2,0-.3,0-2-.2-3.5-1.9-3.4-3.9,0-.4,0-.7,0-1.1.2-2,1.9-3.5,4-3.3,2,.2,3.5,2,3.3,4,0,.3,0,.7,0,1-.1,1.9-1.8,3.4-3.7,3.4ZM426.8,417.5c-1.9,0-3.5-1.4-3.7-3.4,0-.3,0-.7,0-1-.2-2,1.3-3.8,3.3-4,2-.2,3.8,1.3,4,3.3,0,.4,0,.7,0,1.1.2,2-1.3,3.8-3.3,4-.1,0-.2,0-.3,0ZM347.7,407.5c-.3,0-.7,0-1-.1-2-.5-3.1-2.6-2.6-4.5.1-.4.2-.7.3-1.1.6-1.9,2.6-3,4.6-2.5,1.9.6,3,2.6,2.5,4.6,0,.3-.2.6-.3.9-.4,1.6-1.9,2.7-3.5,2.7ZM424.8,406.2c-1.6,0-3.1-1-3.5-2.7,0-.3-.2-.6-.3-.9-.6-1.9.5-4,2.4-4.6,1.9-.6,4,.5,4.6,2.4.1.4.2.7.3,1.1.6,1.9-.6,4-2.5,4.5-.3,0-.7.1-1,.1ZM352.7,397.2c-.8,0-1.7-.3-2.4-.9-1.6-1.3-1.8-3.6-.5-5.2.3-.3.5-.6.8-.9,1.4-1.5,3.7-1.6,5.2-.2,1.5,1.4,1.6,3.7.2,5.2-.2.2-.4.4-.6.6-.7.9-1.8,1.3-2.8,1.3ZM419.5,396.1c-1,0-2-.4-2.7-1.2-.2-.2-.4-.4-.6-.6-1.5-1.4-1.5-3.7,0-5.2,1.4-1.5,3.7-1.5,5.2,0,.3.3.6.6.9.9,1.4,1.5,1.3,3.8-.2,5.2-.7.6-1.6,1-2.5,1Z"/>
            <g>
              <path class="st8" d="M311.2,673.1c2.5.6,5.1,1.1,7.6,1.6.4-1.8.7-3.7,1.1-5.5,2.2.4,4.5.9,6.8,1.3,1.1-6.4,2.3-12.7,3.4-19.1-2.1-.4-4.3-.8-6.4-1.2.4-1.8.7-3.7,1.1-5.5-2.3-.5-4.7-.9-7-1.5.5-2.4,1.1-4.8,1.6-7.2-4.3-.9-8.5-2-12.7-3.1-.2.5-.4,1-.6,1.5,3.8,1,7.5,1.9,11.3,2.8-.5,2.4-1.1,4.8-1.6,7.2,2.3.5,4.7,1,7,1.5-.4,1.8-.7,3.7-1.1,5.5,2.1.4,4.3.9,6.4,1.2-1,5.3-1.9,10.6-2.9,15.8-2.2-.4-4.5-.8-6.7-1.3-.4,1.8-.7,3.7-1.1,5.5-2.5-.5-5-1.1-7.6-1.6-.5,2.4-1.1,4.8-1.6,7.2-4.9-1.1-9.8-2.3-14.7-3.6-.1.5-.3,1.1-.4,1.6,5.5,1.5,11.1,2.8,16.6,4.1.5-2.4,1.1-4.8,1.6-7.2Z"/>
              <path class="st8" d="M342.4,678.6c2.6.3,5.1.7,7.7.9-.3,2.5-.5,4.9-.8,7.4,7.4.8,14.8,1.4,22.2,1.8.1-2.5.3-4.9.4-7.4,2.6.1,5.1.2,7.7.3,0-1.9.1-3.8.2-5.6,2.3,0,4.6.1,6.8.2,0-6.5.2-12.9.3-19.4-2.2,0-4.3,0-6.5-.2,0-1.9.1-3.8.2-5.6-2.4,0-4.7-.2-7.1-.3.1-2.5.3-4.9.4-7.4-6.5-.3-13.1-.9-19.6-1.6-.3,2.5-.5,4.9-.8,7.4-2.4-.3-4.7-.6-7.1-.9-.2,1.9-.5,3.7-.7,5.6-2.1-.3-4.3-.6-6.4-.9-1,6.4-1.9,12.8-2.9,19.2,2.3.3,4.5.7,6.8,1-.2,1.9-.5,3.7-.7,5.6ZM338.4,670.7c.8-5.3,1.6-10.6,2.3-15.9,2.2.3,4.3.6,6.5.9.2-1.9.5-3.7.7-5.6,2.4.3,4.7.6,7.1.8.3-2.5.5-4.9.8-7.4,5.4.6,10.9,1,16.3,1.3-.1,2.5-.3,4.9-.4,7.4,2.4.1,4.7.3,7.1.3,0,1.9-.1,3.8-.2,5.6,2.2,0,4.3.1,6.5.2-.1,5.4-.2,10.7-.3,16.1-2.3,0-4.5-.1-6.8-.2,0,1.9-.1,3.8-.2,5.6-2.6,0-5.1-.2-7.7-.4-.1,2.5-.3,4.9-.4,7.4-6.1-.4-12.2-.9-18.3-1.5.3-2.5.5-4.9.8-7.4-2.6-.3-5.1-.6-7.7-.9.2-1.9.5-3.7.7-5.6-2.3-.3-4.5-.6-6.8-.9Z"/>
              <path class="st8" d="M299.6,726.1c2.9.6,5.8,1.2,8.7,1.8.4-1.8.7-3.7,1.1-5.5,2.6.5,5.2,1,7.7,1.5,1.1-6.4,2.3-12.7,3.4-19.1-2.5-.4-4.9-.9-7.4-1.4.4-1.8.7-3.7,1.1-5.5-2.7-.5-5.4-1.1-8.1-1.7.5-2.4,1.1-4.8,1.6-7.2-5.7-1.2-11.3-2.6-17-4.1-.1.5-.3,1-.4,1.6,5,1.3,10,2.6,15.1,3.7-.5,2.4-1.1,4.8-1.6,7.2,2.7.6,5.4,1.2,8.1,1.7-.4,1.8-.7,3.7-1.1,5.5,2.5.5,4.9,1,7.4,1.4-1,5.3-1.9,10.6-2.9,15.8-2.6-.5-5.1-1-7.7-1.5-.4,1.8-.7,3.7-1.1,5.5-2.9-.6-5.8-1.2-8.7-1.9-.5,2.4-1.1,4.8-1.6,7.2-4.9-1.1-9.7-2.3-14.5-3.5,0,.5-.2,1.1-.3,1.6,5.5,1.4,11,2.8,16.6,4,.5-2.4,1.1-4.8,1.6-7.2Z"/>
              <path class="st8" d="M335.3,732.4c2.9.4,5.9.7,8.8,1.1-.3,2.5-.5,4.9-.8,7.4,8.4.9,16.9,1.6,25.4,2.1.1-2.5.3-4.9.4-7.4,2.9.2,5.9.3,8.8.4,0-1.9.1-3.8.2-5.6,2.6,0,5.2.1,7.9.2,0-6.5.2-12.9.3-19.4-2.5,0-5,0-7.5-.2,0-1.9.1-3.8.2-5.6-2.7,0-5.5-.2-8.2-.4.1-2.5.3-4.9.4-7.4-7.6-.4-15.2-1-22.7-1.9-.3,2.5-.5,4.9-.8,7.4-2.7-.3-5.4-.6-8.2-1-.2,1.9-.5,3.7-.7,5.6-2.5-.3-5-.7-7.4-1.1-1,6.4-1.9,12.8-2.9,19.2,2.6.4,5.2.8,7.8,1.1-.2,1.9-.5,3.7-.7,5.6ZM330.5,724.4c.8-5.3,1.6-10.6,2.3-15.9,2.5.4,5,.7,7.5,1,.2-1.9.5-3.7.7-5.6,2.7.3,5.5.7,8.2,1,.3-2.5.5-4.9.8-7.4,6.3.7,12.6,1.2,18.9,1.6-.1,2.5-.3,4.9-.4,7.4,2.7.2,5.5.3,8.2.4,0,1.9-.1,3.8-.2,5.6,2.5,0,5,.2,7.5.2-.1,5.4-.2,10.7-.3,16.1-2.6,0-5.2-.1-7.8-.2,0,1.9-.1,3.8-.2,5.6-2.9-.1-5.9-.3-8.8-.4-.1,2.5-.3,4.9-.4,7.4-7-.4-14-1-20.9-1.7.3-2.5.5-4.9.8-7.4-2.9-.3-5.8-.7-8.8-1,.2-1.9.5-3.7.7-5.6-2.6-.3-5.2-.7-7.8-1.1Z"/>
              <path class="st8" d="M289.2,779.3c3.3.7,6.5,1.4,9.8,2,.4-1.8.7-3.7,1.1-5.5,2.9.6,5.8,1.1,8.7,1.6,1.1-6.4,2.2-12.7,3.4-19.1-2.8-.5-5.6-1-8.4-1.6.4-1.8.7-3.7,1.1-5.5-3.1-.6-6.1-1.2-9.2-1.9.5-2.4,1-4.8,1.6-7.2-5.8-1.3-11.5-2.6-17.3-4.1,0,.5-.2,1.1-.3,1.6,5,1.3,10,2.5,15,3.6-.5,2.4-1.1,4.8-1.6,7.2,3.1.7,6.1,1.3,9.2,1.9-.4,1.8-.7,3.7-1.1,5.5,2.8.6,5.6,1.1,8.4,1.6-1,5.3-1.9,10.6-2.9,15.8-2.9-.5-5.8-1.1-8.7-1.7-.4,1.8-.7,3.7-1.1,5.5-3.3-.7-6.5-1.3-9.8-2.1-.5,2.4-1.1,4.8-1.6,7.2-3.7-.8-7.4-1.7-11.1-2.6,0,.5-.1,1.1-.2,1.6,4.4,1.1,8.9,2.1,13.3,3.1.5-2.4,1-4.8,1.6-7.2Z"/>
              <path class="st8" d="M329.3,786.3c3.3.4,6.6.8,9.9,1.2-.3,2.5-.5,4.9-.8,7.4,9.5,1,19,1.8,28.5,2.3.1-2.5.3-4.9.4-7.4,3.3.2,6.6.3,10,.4,0-1.9.1-3.8.2-5.6,3,0,5.9.2,8.9.2,0-6.5.2-12.9.2-19.4-2.8,0-5.7,0-8.5-.2,0-1.9.1-3.8.2-5.6-3.1,0-6.2-.2-9.3-.4.1-2.5.3-4.9.4-7.4-8.6-.4-17.3-1.1-25.9-2.1-.3,2.5-.5,4.9-.8,7.4-3.1-.3-6.2-.7-9.3-1.1-.2,1.9-.5,3.7-.7,5.6-2.8-.4-5.6-.8-8.4-1.2-1,6.4-1.9,12.8-2.9,19.2,2.9.4,5.9.8,8.8,1.2-.2,1.9-.5,3.7-.7,5.6ZM323.9,778.2c.8-5.3,1.5-10.6,2.3-15.9,2.8.4,5.6.8,8.5,1.1.2-1.9.5-3.7.7-5.6,3.1.4,6.2.7,9.3,1.1.3-2.5.5-4.9.8-7.4,7.2.7,14.3,1.3,21.5,1.7-.1,2.5-.3,4.9-.4,7.4,3.1.2,6.2.3,9.4.4,0,1.9-.1,3.8-.2,5.6,2.8.1,5.7.2,8.5.2,0,5.4-.2,10.7-.3,16.1-2.9,0-5.9-.1-8.8-.2,0,1.9-.1,3.8-.2,5.6-3.3-.1-6.6-.3-9.9-.5-.1,2.5-.3,4.9-.4,7.4-7.9-.4-15.7-1.1-23.5-1.9.3-2.5.5-4.9.8-7.4-3.3-.3-6.6-.7-9.9-1.1.2-1.9.5-3.7.7-5.6-2.9-.4-5.8-.8-8.8-1.2Z"/>
              <path class="st8" d="M277.6,832.4c3.6.8,7.3,1.5,10.9,2.2.4-1.8.7-3.7,1.1-5.5,3.2.6,6.5,1.2,9.7,1.8,1.1-6.4,2.2-12.7,3.4-19.1-3.1-.6-6.3-1.1-9.4-1.7.4-1.8.7-3.7,1.1-5.5-3.4-.7-6.9-1.4-10.3-2.1.5-2.4,1-4.8,1.6-7.2-4.1-.9-8.2-1.8-12.2-2.8,0,.6,0,1.1-.1,1.7,3.2.8,6.4,1.5,9.5,2.2-.5,2.4-1.1,4.8-1.6,7.2,3.4.8,6.9,1.5,10.3,2.2-.4,1.8-.7,3.7-1.1,5.5,3.1.6,6.3,1.2,9.4,1.8-1,5.3-1.9,10.6-2.9,15.8-3.2-.6-6.5-1.2-9.7-1.9-.4,1.8-.7,3.7-1.1,5.5-3.6-.7-7.2-1.5-10.9-2.3-.5,2.4-1.1,4.8-1.6,7.2-.7-.2-1.5-.3-2.2-.5,0,.6,0,1.1,0,1.7,1.5.3,3,.7,4.5,1,.5-2.4,1-4.8,1.6-7.2Z"/>
              <path class="st8" d="M376.6,813.8c-3.5-.1-7-.2-10.4-.4.1-2.5.3-4.9.4-7.4-9.7-.5-19.4-1.3-29-2.3-.3,2.5-.5,4.9-.8,7.4-3.5-.4-6.9-.8-10.4-1.2-.2,1.9-.5,3.7-.7,5.6-3.1-.4-6.3-.8-9.4-1.3-1,6.4-1.9,12.8-2.9,19.2,3.3.5,6.5.9,9.8,1.4-.2,1.9-.5,3.7-.7,5.6,3.7.5,7.3.9,11,1.3-.3,2.5-.5,4.9-.8,7.4,10.5,1.2,21.1,2,31.7,2.5.1-2.5.3-4.9.4-7.4,3.7.2,7.4.3,11.1.4,0-1.9.1-3.8.2-5.6,3.3,0,6.6.2,9.9.2,0-6.5.2-12.9.2-19.4-3.2,0-6.3-.1-9.5-.2,0-1.9.1-3.8.2-5.6ZM383.3,821.2c0,5.4-.2,10.7-.3,16.1-3.3,0-6.6-.1-9.8-.3,0,1.9-.1,3.8-.2,5.6-3.7-.1-7.4-.3-11-.5-.1,2.5-.3,4.9-.4,7.4-8.7-.5-17.4-1.2-26.1-2.1.3-2.5.5-4.9.8-7.4-3.7-.4-7.3-.8-11-1.3.2-1.9.5-3.7.7-5.6-3.3-.4-6.5-.8-9.8-1.3.8-5.3,1.5-10.6,2.3-15.9,3.2.5,6.3.9,9.5,1.3.2-1.9.5-3.7.7-5.6,3.5.4,6.9.8,10.4,1.2.3-2.5.5-4.9.8-7.4,8,.8,16.1,1.5,24.1,1.9-.1,2.5-.3,4.9-.4,7.4,3.5.2,7,.4,10.5.5,0,1.9-.1,3.8-.2,5.6,3.2.1,6.4.2,9.5.2Z"/>
              <path class="st8" d="M403.1,676c0,1.9.1,3.8.2,5.6,2.6,0,5.1-.2,7.7-.3.1,2.5.3,4.9.4,7.4,7.4-.4,14.8-1,22.2-1.8-.3-2.5-.5-4.9-.8-7.4,2.6-.3,5.1-.6,7.7-.9-.2-1.9-.5-3.7-.7-5.6,2.3-.3,4.5-.6,6.8-1-1-6.4-1.9-12.8-2.9-19.2-2.1.3-4.3.6-6.4.9-.2-1.9-.5-3.7-.7-5.6-2.4.3-4.7.6-7.1.8-.3-2.5-.5-4.9-.8-7.4-6.5.7-13,1.2-19.6,1.6.1,2.5.3,4.9.4,7.4-2.4.1-4.7.2-7.1.3,0,1.9.1,3.8.2,5.6-2.2,0-4.3.1-6.5.1,0,6.5.2,12.9.2,19.4,2.3,0,4.6,0,6.8-.1ZM404.4,658.2c0-1.9-.1-3.8-.2-5.6,2.4,0,4.7-.2,7.1-.3-.1-2.5-.3-4.9-.4-7.4,5.4-.3,10.9-.7,16.3-1.3.3,2.5.5,4.9.8,7.4,2.4-.2,4.7-.5,7.1-.8.2,1.9.5,3.7.7,5.6,2.2-.3,4.3-.6,6.5-.9.8,5.3,1.5,10.6,2.3,15.9-2.3.3-4.5.6-6.8.9.2,1.9.5,3.7.7,5.6-2.5.3-5.1.6-7.7.9.3,2.5.5,4.9.8,7.4-6.1.6-12.2,1.1-18.3,1.5-.1-2.5-.3-4.9-.4-7.4-2.6.1-5.1.3-7.7.4,0-1.9-.1-3.8-.2-5.6-2.3,0-4.5.1-6.8.2,0-5.4-.2-10.7-.3-16.1,2.2,0,4.3,0,6.5-.2Z"/>
              <path class="st8" d="M465.2,643.3c-2.3.5-4.7,1-7,1.4.4,1.8.7,3.7,1.1,5.5-2.1.4-4.3.8-6.4,1.2,1.1,6.4,2.2,12.7,3.4,19.1,2.3-.4,4.5-.8,6.8-1.3.4,1.8.7,3.7,1.1,5.5,2.5-.5,5.1-1,7.6-1.6.5,2.4,1,4.8,1.6,7.2,5.8-1.3,11.6-2.7,17.4-4.2-.1-.5-.3-1.1-.4-1.6-5.1,1.4-10.3,2.6-15.4,3.8-.5-2.4-1.1-4.8-1.6-7.2-2.5.6-5,1.1-7.6,1.6-.4-1.8-.7-3.7-1.1-5.5-2.2.4-4.5.9-6.7,1.3-1-5.3-1.9-10.6-2.9-15.8,2.1-.4,4.3-.8,6.4-1.2-.4-1.8-.7-3.7-1.1-5.5,2.3-.5,4.7-1,7-1.5-.5-2.4-1.1-4.8-1.6-7.2,4.2-.9,8.3-2,12.4-3-.2-.5-.4-1-.5-1.5-4.6,1.2-9.3,2.3-13.9,3.3.5,2.4,1,4.8,1.6,7.2Z"/>
              <path class="st8" d="M444.3,707.7c-.2-1.9-.5-3.7-.7-5.6-2.7.4-5.4.7-8.2,1-.3-2.5-.5-4.9-.8-7.4-7.6.8-15.1,1.4-22.7,1.8.1,2.5.3,4.9.4,7.4-2.7.1-5.5.2-8.2.3,0,1.9.1,3.8.2,5.6-2.5,0-5,.1-7.5.2,0,6.5.2,12.9.2,19.4,2.6,0,5.2,0,7.9-.2,0,1.9.1,3.8.2,5.6,2.9,0,5.9-.2,8.8-.4.1,2.5.3,4.9.4,7.4,8.5-.4,16.9-1.1,25.4-2-.3-2.5-.5-4.9-.8-7.4,2.9-.3,5.9-.7,8.8-1.1-.2-1.9-.5-3.7-.7-5.6,2.6-.3,5.2-.7,7.8-1.1-1-6.4-1.9-12.8-2.9-19.2-2.5.4-5,.7-7.4,1ZM444.5,725.6c.2,1.9.5,3.7.7,5.6-2.9.4-5.8.7-8.8,1,.3,2.5.5,4.9.8,7.4-7,.7-13.9,1.3-20.9,1.7-.1-2.5-.3-4.9-.4-7.4-2.9.2-5.9.3-8.8.4,0-1.9-.1-3.8-.2-5.6-2.6,0-5.2.2-7.8.2,0-5.4-.2-10.7-.3-16.1,2.5,0,5-.1,7.5-.2,0-1.9-.1-3.8-.2-5.6,2.7,0,5.5-.2,8.2-.4-.1-2.5-.3-4.9-.4-7.4,6.3-.4,12.6-.9,18.9-1.5.3,2.5.5,4.9.8,7.4,2.7-.3,5.5-.6,8.2-.9.2,1.9.5,3.7.7,5.6,2.5-.3,5-.6,7.5-1,.8,5.3,1.5,10.6,2.3,15.9-2.6.4-5.2.7-7.8,1Z"/>
              <path class="st8" d="M476.7,696.4c-2.7.6-5.4,1.1-8.1,1.7.4,1.8.7,3.7,1.1,5.5-2.5.5-4.9.9-7.4,1.4,1.1,6.4,2.2,12.7,3.4,19.1,2.6-.5,5.2-.9,7.8-1.4.4,1.8.7,3.7,1.1,5.5,2.9-.6,5.8-1.2,8.7-1.8.5,2.4,1,4.8,1.6,7.2,5.9-1.3,11.7-2.7,17.6-4.2,0-.5-.2-1.1-.3-1.6-5.1,1.3-10.3,2.6-15.5,3.7-.5-2.4-1.1-4.8-1.6-7.2-2.9.6-5.8,1.3-8.7,1.8-.4-1.8-.7-3.7-1.1-5.5-2.6.5-5.1,1-7.7,1.5-1-5.3-1.9-10.6-2.9-15.8,2.5-.4,5-.9,7.4-1.4-.4-1.8-.7-3.7-1.1-5.5,2.7-.5,5.4-1.1,8.1-1.7-.5-2.4-1.1-4.8-1.6-7.2,5.3-1.2,10.6-2.5,15.8-3.9-.1-.5-.3-1-.4-1.6-5.9,1.6-11.8,3-17.7,4.3.5,2.4,1,4.8,1.6,7.2Z"/>
              <path class="st8" d="M452.4,761.3c-.2-1.9-.5-3.7-.7-5.6-3.1.4-6.2.8-9.3,1.1-.3-2.5-.5-4.9-.8-7.4-8.6,1-17.2,1.7-25.9,2.1.1,2.5.3,4.9.4,7.4-3.1.2-6.2.3-9.3.4,0,1.9.1,3.8.2,5.6-2.8,0-5.7.2-8.5.2,0,6.5.2,12.9.3,19.4,3,0,5.9-.1,8.9-.2,0,1.9.1,3.8.2,5.6,3.3-.1,6.6-.3,9.9-.4.1,2.5.3,4.9.4,7.4,9.5-.5,19-1.3,28.5-2.4-.3-2.5-.5-4.9-.8-7.4,3.3-.4,6.6-.8,9.9-1.2-.2-1.9-.5-3.7-.7-5.6,2.9-.4,5.9-.8,8.8-1.3-1-6.4-1.9-12.8-2.9-19.2-2.8.4-5.6.8-8.4,1.2ZM452.4,779.2c.2,1.9.5,3.7.7,5.6-3.3.4-6.6.8-9.9,1.2.3,2.5.5,4.9.8,7.4-7.8.8-15.7,1.5-23.5,1.9-.1-2.5-.3-4.9-.4-7.4-3.3.2-6.6.4-9.9.5,0-1.9-.1-3.8-.2-5.6-2.9.1-5.9.2-8.8.3-.1-5.4-.2-10.7-.3-16.1,2.8,0,5.7-.1,8.5-.2,0-1.9-.1-3.8-.2-5.6,3.1-.1,6.2-.3,9.4-.4-.1-2.5-.3-4.9-.4-7.4,7.2-.4,14.3-1,21.5-1.8.3,2.5.5,4.9.8,7.4,3.1-.3,6.2-.7,9.3-1.1.2,1.9.5,3.7.7,5.6,2.8-.4,5.6-.7,8.5-1.2.8,5.3,1.6,10.6,2.3,15.9-2.9.4-5.8.8-8.8,1.2Z"/>
              <path class="st8" d="M489.3,749.1c-3.1.7-6.1,1.3-9.2,1.9.4,1.8.7,3.7,1.1,5.5-2.8.6-5.6,1.1-8.4,1.6,1.1,6.4,2.3,12.7,3.4,19.1,2.9-.5,5.8-1.1,8.7-1.6.4,1.8.7,3.7,1.1,5.5,3.3-.6,6.5-1.3,9.8-2,.5,2.4,1.1,4.8,1.6,7.2,4-.9,8.1-1.8,12.1-2.8,0-.5-.1-1.1-.2-1.6-3.3.8-6.6,1.6-9.9,2.3-.5-2.4-1.1-4.8-1.6-7.2-3.2.7-6.5,1.4-9.8,2.1-.4-1.8-.7-3.7-1.1-5.5-2.9.6-5.8,1.2-8.7,1.7-1-5.3-1.9-10.6-2.9-15.8,2.8-.5,5.6-1.1,8.4-1.6-.4-1.8-.7-3.7-1.1-5.5,3.1-.6,6.1-1.3,9.2-2-.5-2.4-1.1-4.8-1.6-7.2,4.6-1,9.2-2.2,13.8-3.3,0-.5-.2-1.1-.3-1.6-5.3,1.4-10.7,2.7-16.1,3.9.5,2.4,1.1,4.8,1.6,7.2Z"/>
              <path class="st8" d="M459.6,815.1c-.2-1.9-.5-3.7-.7-5.6-3.5.5-6.9.9-10.4,1.3-.3-2.5-.5-4.9-.8-7.4-9.7,1.1-19.3,1.9-29,2.4.1,2.5.3,4.9.4,7.4-3.5.2-7,.3-10.4.4,0,1.9.1,3.8.2,5.6-3.2.1-6.3.2-9.5.2,0,6.5.2,12.9.3,19.4,3.3,0,6.6-.1,9.9-.2,0,1.9.1,3.8.2,5.6,3.7-.1,7.4-.3,11.1-.5.1,2.5.3,4.9.4,7.4,10.6-.6,21.1-1.4,31.7-2.6-.3-2.5-.5-4.9-.8-7.4,3.7-.4,7.3-.9,11-1.3-.2-1.9-.5-3.7-.7-5.6,3.3-.4,6.5-.9,9.8-1.4-1-6.4-1.9-12.8-2.9-19.2-3.1.5-6.3.9-9.4,1.3ZM459.3,833.1c.2,1.9.5,3.7.7,5.6-3.7.5-7.3.9-11,1.3.3,2.5.5,4.9.8,7.4-8.7.9-17.4,1.7-26.1,2.2-.1-2.5-.3-4.9-.4-7.4-3.7.2-7.4.4-11,.5,0-1.9-.1-3.8-.2-5.6-3.3.1-6.6.2-9.8.3-.1-5.4-.2-10.7-.3-16.1,3.2,0,6.4-.2,9.5-.3,0-1.9-.1-3.8-.2-5.6,3.5-.1,7-.3,10.5-.5-.1-2.5-.3-4.9-.4-7.4,8-.5,16.1-1.1,24.1-2,.3,2.5.5,4.9.8,7.4,3.5-.4,7-.8,10.4-1.2.2,1.9.5,3.7.7,5.6,3.2-.4,6.3-.8,9.5-1.3.8,5.3,1.6,10.6,2.3,15.9-3.3.5-6.5.9-9.8,1.3Z"/>
              <path class="st8" d="M501,802.1c-3.4.8-6.8,1.5-10.3,2.1.4,1.8.7,3.7,1.1,5.5-3.1.6-6.2,1.2-9.4,1.8,1.1,6.4,2.3,12.7,3.4,19.1,3.2-.6,6.5-1.2,9.7-1.8.4,1.8.7,3.7,1.1,5.5,3.6-.7,7.3-1.5,10.9-2.3.5,2.4,1.1,4.8,1.6,7.2,1.1-.2,2.1-.5,3.2-.7,0-.6,0-1.1,0-1.7-.3,0-.5.1-.8.2-.5-2.4-1.1-4.8-1.6-7.2-3.6.8-7.2,1.6-10.9,2.3-.4-1.8-.7-3.7-1.1-5.5-3.2.7-6.5,1.3-9.7,1.9-1-5.3-1.9-10.6-2.9-15.8,3.1-.6,6.3-1.2,9.4-1.8-.4-1.8-.7-3.7-1.1-5.5,3.4-.7,6.9-1.4,10.3-2.2-.5-2.4-1.1-4.8-1.6-7.2,2.8-.6,5.5-1.3,8.3-1.9,0-.6,0-1.1-.1-1.7-3.7.9-7.3,1.8-11,2.6.5,2.4,1.1,4.8,1.6,7.2Z"/>
              <path class="st8" d="M504.4,843.9c-.5-2.4-1-4.8-1.5-7.2-3.7.8-7.3,1.5-11,2.2-.3-1.8-.7-3.7-1-5.5-3.3.6-6.5,1.2-9.8,1.7-1.5-8.6-2.9-17.3-4.4-25.9,3.1-.5,6.2-1.1,9.3-1.7-.3-1.8-.7-3.7-1-5.5,3.4-.6,6.8-1.3,10.2-2-.5-2.4-1-4.8-1.5-7.2,5.5-1.1,11-2.4,16.4-3.7,0-.6-.1-1.3-.2-1.9-5.5,1.4-11.1,2.6-16.7,3.8-.5-2.4-1-4.8-1.5-7.2-3.3.7-6.6,1.3-9.9,2-.3-1.8-.7-3.7-1-5.5-2.9.6-5.9,1.1-8.8,1.6-1.5-8.6-2.9-17.3-4.4-25.9,2.8-.5,5.6-1,8.3-1.5-.3-1.8-.7-3.7-1-5.5,3-.6,6.1-1.2,9.1-1.8-.5-2.4-1-4.8-1.5-7.2,6.9-1.4,13.8-3.1,20.7-4.9-.1-.6-.2-1.2-.3-1.9-7.3,1.9-14.5,3.6-21.9,5.1-.5-2.4-1-4.8-1.5-7.2-2.9.6-5.9,1.2-8.8,1.7-.3-1.8-.7-3.7-1-5.5-2.6.5-5.2.9-7.8,1.4-1.4-8.6-2.9-17.3-4.3-25.9,2.5-.4,4.9-.8,7.3-1.3-.3-1.8-.7-3.7-1-5.5,2.7-.5,5.4-1,8-1.6-.5-2.4-1-4.8-1.5-7.2,7.2-1.5,14.4-3.2,21.5-5.1-.2-.6-.3-1.2-.5-1.9-7.1,1.9-14.2,3.6-21.4,5.1-.5-2.4-1-4.8-1.5-7.2-2.6.5-5.1,1-7.7,1.5-.3-1.8-.7-3.7-1-5.5-2.3.4-4.6.8-6.8,1.2-1.4-8.6-2.9-17.3-4.3-25.9,2.1-.4,4.2-.7,6.4-1.1-.3-1.8-.7-3.7-1-5.5,2.3-.4,4.6-.9,6.9-1.4-.5-2.4-1-4.8-1.5-7.2,5.6-1.2,11.3-2.5,16.9-4-.2-.5-.4-1-.5-1.6-6.1,1.6-12.2,3-18.3,4.2.5,2.4,1,4.8,1.5,7.3-2.3.5-4.6.9-6.9,1.3.3,1.9.7,3.7,1,5.6-1.6.3-3.3.6-4.9.8-.5,0-.9.2-1.4.2-1.6.3-3.3.5-4.9.8-.3-1.9-.5-3.7-.8-5.6-2.3.3-4.6.7-6.9.9-.3-2.4-.6-4.9-.9-7.3-9.8,1.2-19.6,2-29.4,2.4,0,2.5.2,4.9.3,7.4-2.3,0-4.7.1-7,.2,0,1.9,0,3.8,0,5.6-1.6,0-3.2,0-4.9,0-.5,0-1,0-1.5,0-1.6,0-3.2,0-4.9,0,0-1.9,0-3.8,0-5.6-2.3,0-4.7-.1-7-.2,0-2.5.2-4.9.3-7.4-9.8-.4-19.6-1.2-29.4-2.4-.3,2.4-.6,4.9-.9,7.3-2.3-.3-4.6-.6-6.9-1-.3,1.9-.6,3.7-.8,5.6-1.6-.2-3.3-.5-4.9-.8-.5,0-.9-.2-1.4-.2-1.6-.3-3.3-.6-4.9-.9.3-1.8.7-3.7,1-5.5-2.3-.4-4.6-.9-6.9-1.3.5-2.4,1-4.8,1.5-7.2-5.7-1.2-11.4-2.5-17-4-.2.5-.4,1-.6,1.5,5.2,1.3,10.4,2.6,15.6,3.7-.5,2.4-1,4.8-1.5,7.2,2.3.5,4.6.9,6.9,1.4-.3,1.8-.7,3.7-1,5.5,2.1.4,4.2.8,6.4,1.1-1.5,8.6-2.9,17.3-4.4,25.9-2.3-.4-4.6-.8-6.8-1.2-.3,1.8-.7,3.7-1,5.5-2.6-.5-5.1-1-7.7-1.5-.5,2.4-1,4.8-1.5,7.2-6.9-1.4-13.8-3.1-20.7-4.9-.2.6-.3,1.2-.5,1.9,6.9,1.8,13.8,3.5,20.8,5-.5,2.4-1,4.8-1.5,7.2,2.7.6,5.3,1.1,8,1.6-.3,1.8-.7,3.7-1,5.5,2.4.5,4.9.9,7.3,1.3-1.5,8.6-2.9,17.3-4.4,25.9-2.6-.4-5.2-.9-7.8-1.4-.3,1.8-.7,3.7-1,5.5-2.9-.6-5.9-1.1-8.8-1.7-.5,2.4-1,4.8-1.5,7.2-7-1.5-13.9-3.1-20.9-4.9-.1.6-.2,1.2-.3,1.9,7.3,1.9,14.6,3.6,21.9,5.1-.5,2.4-1,4.8-1.5,7.2,3,.6,6.1,1.2,9.1,1.8-.3,1.8-.7,3.7-1,5.5,2.8.5,5.6,1,8.3,1.5-1.4,8.6-2.9,17.3-4.3,25.9-2.9-.5-5.9-1-8.8-1.5-.3,1.8-.7,3.7-1,5.5-3.3-.6-6.6-1.3-9.9-1.9-.5,2.4-1,4.8-1.5,7.2-6-1.2-12-2.6-17.9-4.1,0,.6-.1,1.3-.2,1.9,5.9,1.4,11.8,2.8,17.7,4-.5,2.4-1,4.8-1.5,7.2,3.4.7,6.8,1.4,10.2,2-.3,1.8-.7,3.7-1,5.5,3.1.6,6.2,1.1,9.3,1.6-1.4,8.6-2.9,17.3-4.3,25.9-3.3-.5-6.5-1.1-9.8-1.7-.3,1.8-.7,3.7-1,5.5-3.7-.7-7.3-1.4-11-2.1-.5,2.4-1,4.8-1.5,7.2-3.1-.6-6.2-1.3-9.3-2,0,.6,0,1.1,0,1.7,3.9.9,7.8,1.7,11.7,2.5.5-2.4,1-4.8,1.5-7.3,3.7.7,7.3,1.4,11,2.1.3-1.9.7-3.7,1-5.6,2.5.5,5.1.9,7.6,1.3.7.1,1.5.2,2.2.4,2.6.4,5.1.8,7.7,1.2-.3,1.9-.5,3.7-.8,5.6,3.7.5,7.4,1,11.1,1.5-.3,2.4-.6,4.9-.9,7.3,16.2,2,32.4,3.3,48.7,3.9,0-2.5.2-4.9.3-7.4,3.7.1,7.4.2,11.2.3,0-1.9,0-3.8,0-5.6,2.5,0,5,0,7.6,0,.8,0,1.6,0,2.4,0,2.5,0,5,0,7.6,0,0,1.9,0,3.8,0,5.6,3.7,0,7.5-.2,11.2-.3,0,2.5.2,4.9.3,7.4,16.3-.6,32.5-2,48.7-4-.3-2.4-.6-4.9-.9-7.3,3.7-.5,7.4-1,11.1-1.5-.3-1.9-.6-3.7-.8-5.6,2.6-.4,5.1-.8,7.7-1.2.7-.1,1.5-.2,2.2-.4,2.5-.4,5.1-.9,7.6-1.3.3,1.8.7,3.7,1,5.5,3.7-.7,7.4-1.4,11-2.1.5,2.4,1,4.8,1.5,7.2,3.4-.7,6.9-1.4,10.3-2.2,0-.6,0-1.1,0-1.7-2.6.6-5.3,1.2-7.9,1.7ZM471.9,783.2c2.3-.4,4.6-.8,6.9-1.2.3,1.8.7,3.7,1,5.5,3.3-.6,6.6-1.2,9.9-1.9.4,2,.8,3.9,1.2,5.9,0,.4.2.9.3,1.3.4,2,.8,3.9,1.2,5.9-3.4.7-6.8,1.3-10.2,2,.3,1.8.7,3.7,1,5.5-2.4.4-4.8.9-7.2,1.3-.7.1-1.4.2-2.1.3-2.4.4-4.8.8-7.2,1.1-.3-1.9-.6-3.7-.8-5.6-3.4.5-6.8,1-10.3,1.4-.3-2-.5-4-.8-6,0-.4-.1-.9-.2-1.3-.3-2-.5-4-.8-6,3.3-.4,6.7-.9,10-1.4-.3-1.9-.6-3.7-.8-5.6,2.3-.3,4.6-.7,6.9-1.1.7-.1,1.3-.2,2-.3ZM469.2,781.9c-2.9.5-5.9.9-8.8,1.4.3,1.9.5,3.7.8,5.6-3.3.5-6.6.9-10,1.3.3,2.4.6,4.9.9,7.3-12.9,1.6-25.9,2.6-38.8,3.2-.1-2.5-.2-4.9-.3-7.4-3.3.1-6.7.3-10,.3,0-1.9,0-3.8-.1-5.6-3,0-5.9.1-8.9.1,0-8.8,0-17.5-.1-26.3,2.8,0,5.6,0,8.4-.1,0-1.9,0-3.8-.1-5.6,3.1,0,6.2-.2,9.3-.3-.1-2.5-.2-4.9-.3-7.4,11.6-.5,23.2-1.5,34.7-2.9.3,2.4.6,4.9.9,7.3,3.1-.4,6.1-.8,9.2-1.2.3,1.9.5,3.7.8,5.6,2.8-.4,5.6-.8,8.4-1.3,1.4,8.6,2.8,17.3,4.2,25.9ZM376,754.3c0-2.5.2-4.9.3-7.4-.4,0-.7,0-1.1,0,0-2,.2-4,.2-6,3,.1,6,.2,8.9.2,0-1.9,0-3.8,0-5.6,2,0,4,0,6,0,.6,0,1.3,0,1.9,0,2,0,4,0,6,0,0,1.9,0,3.8,0,5.6,3,0,6-.1,8.9-.2,0,2.5.2,4.9.3,7.4.4,0,.8,0,1.1,0,0,2,.2,4,.2,6-3.1.1-6.1.2-9.2.3,0,1.9,0,3.8,0,5.6-2.1,0-4.3,0-6.4,0-.7,0-1.3,0-2,0-2.1,0-4.3,0-6.4,0,0-1.9,0-3.8,0-5.6-3.1,0-6.1-.1-9.2-.2ZM461.8,729.8c2-.3,4.1-.7,6.1-1.1.3,1.9.7,3.7,1,5.6,2.9-.5,5.9-1.1,8.8-1.7.5,2.4,1,4.8,1.5,7.3.4,0,.7-.1,1.1-.2.4,2,.8,3.9,1.2,5.9-3,.6-6.1,1.2-9.1,1.8.3,1.8.7,3.7,1,5.5-2.1.4-4.3.8-6.4,1.1-.6.1-1.2.2-1.9.3-2.2.4-4.3.7-6.5,1-.3-1.9-.6-3.7-.8-5.6-3,.5-6.1.9-9.2,1.3-.3-2.4-.6-4.9-.9-7.3-.4,0-.7,0-1.1.1-.2-2-.5-4-.7-6,3-.4,5.9-.8,8.9-1.2-.3-1.9-.5-3.7-.8-5.6,2-.3,4.1-.6,6.1-.9.6,0,1.2-.2,1.8-.3ZM459.4,728.6c-2.6.4-5.2.8-7.8,1.2.3,1.9.5,3.7.8,5.6-2.9.4-5.9.8-8.9,1.2.3,2.4.6,4.9.9,7.3-11.5,1.4-23,2.3-34.6,2.8-.1-2.5-.2-4.9-.3-7.4-3,.1-5.9.2-8.9.3,0-1.9,0-3.8-.1-5.6-2.6,0-5.3,0-7.9,0,0-8.8,0-17.5,0-26.3,2.5,0,5,0,7.4,0,0-1.9,0-3.8-.1-5.6,2.7,0,5.4-.1,8.1-.2-.1-2.5-.2-4.9-.3-7.4,10.2-.4,20.3-1.2,30.5-2.4.3,2.4.6,4.9.9,7.3,2.7-.3,5.4-.7,8.1-1.1.3,1.9.5,3.7.8,5.6,2.5-.3,4.9-.7,7.4-1.1,1.4,8.6,2.8,17.3,4.1,25.9ZM453,676.3c1.8-.3,3.6-.6,5.3-.9.3,1.9.7,3.7,1,5.6,2.6-.5,5.2-1,7.7-1.5.4,2,.8,4,1.2,5.9,0,.4.2.9.3,1.3.4,2,.8,4,1.2,5.9-2.7.5-5.3,1-8,1.5.3,1.9.7,3.7,1,5.6-1.9.3-3.8.7-5.7,1-.5,0-1.1.2-1.6.3-1.9.3-3.8.6-5.7.9-.3-1.9-.5-3.7-.8-5.6-2.7.4-5.4.8-8.1,1.1-.2-2-.5-4-.7-6,0-.4-.1-.9-.2-1.3-.2-2-.5-4-.7-6,2.6-.3,5.2-.7,7.8-1.1-.3-1.9-.5-3.7-.8-5.6,1.8-.3,3.6-.5,5.3-.8.5,0,1-.2,1.5-.3ZM398.9,653.3c0-1.9,0-3.8-.1-5.6,2.3,0,4.7-.1,7-.2,0-2.5-.2-4.9-.3-7.4,8.8-.4,17.5-1.1,26.2-2.1.3,2.4.6,4.9.9,7.3,2.3-.3,4.7-.6,7-.9.3,1.9.5,3.7.8,5.6,2.1-.3,4.3-.6,6.4-1,1.4,8.6,2.8,17.3,4.1,25.9-2.3.4-4.6.7-6.9,1,.3,1.9.5,3.7.8,5.6-2.6.4-5.2.7-7.7,1,.3,2.4.6,4.9.9,7.3-10.1,1.2-20.2,2-30.3,2.4,0-2.5-.2-4.9-.3-7.4-2.6.1-5.2.2-7.8.2,0-1.9,0-3.8-.1-5.6-2.3,0-4.6,0-6.9,0,0-8.8,0-17.5,0-26.3,2.1,0,4.3,0,6.4,0ZM392.3,681.3c1.8,0,3.5,0,5.3,0,0,1.9,0,3.8,0,5.6,2.6,0,5.2-.1,7.8-.2,0,2,.1,4,.2,6,0,.5,0,.9,0,1.4,0,2,.1,4,.2,6-2.7,0-5.4.2-8.1.2,0,1.9,0,3.8,0,5.6-1.9,0-3.8,0-5.6,0-.6,0-1.2,0-1.8,0-1.9,0-3.8,0-5.6,0,0-1.9,0-3.8,0-5.6-2.7,0-5.4-.1-8.1-.2,0-2,.2-4,.2-6,0-.5,0-.9,0-1.4,0-2,.2-4,.2-6,2.6,0,5.2.2,7.8.2,0-1.9,0-3.8,0-5.6,1.8,0,3.5,0,5.3,0,.6,0,1.1,0,1.7,0ZM336.3,648.9c2.1.3,4.2.7,6.4,1,.3-1.9.5-3.7.8-5.6,2.3.3,4.6.6,7,.9.3-2.4.6-4.9.9-7.3,8.7,1.1,17.5,1.8,26.2,2.2-.1,2.5-.2,4.9-.3,7.4,2.3.1,4.7.2,7,.2,0,1.9,0,3.8-.1,5.6,2.1,0,4.3,0,6.4,0,0,8.8,0,17.5-.1,26.3-2.3,0-4.6,0-6.9,0,0,1.9,0,3.8-.1,5.6-2.6,0-5.2-.1-7.8-.3-.1,2.5-.2,4.9-.3,7.4-10.1-.4-20.2-1.3-30.3-2.5.3-2.4.6-4.9.9-7.3-2.6-.3-5.2-.7-7.7-1,.3-1.9.5-3.7.8-5.6-2.3-.3-4.6-.7-6.9-1,1.4-8.6,2.8-17.3,4.2-25.9ZM320.2,699.5c.3-1.8.7-3.7,1-5.5-2.7-.5-5.3-1-8-1.5.4-2,.8-3.9,1.2-5.9,0-.4.2-.9.3-1.3.4-2,.8-3.9,1.2-5.9,2.6.5,5.1,1,7.7,1.5.3-1.8.7-3.7,1-5.5,1.8.3,3.6.6,5.3.9.5,0,1,.2,1.5.3,1.8.3,3.6.6,5.3.8-.3,1.9-.6,3.7-.8,5.6,2.6.4,5.2.7,7.8,1.1-.3,2-.5,4-.8,6,0,.4-.1.9-.2,1.3-.3,2-.5,4-.8,6-2.7-.3-5.4-.7-8-1.1-.3,1.9-.6,3.7-.8,5.6-1.9-.3-3.8-.6-5.7-.9-.5,0-1.1-.2-1.6-.3-1.9-.3-3.8-.6-5.7-1ZM327.6,702.5c2.5.4,4.9.8,7.4,1.1.3-1.9.5-3.7.8-5.6,2.7.4,5.4.7,8.1,1.1.3-2.4.6-4.9.9-7.3,10.1,1.2,20.3,2.1,30.5,2.5-.1,2.5-.2,4.9-.3,7.4,2.7.1,5.4.2,8.1.3,0,1.9,0,3.8-.1,5.6,2.5,0,5,0,7.4,0,0,8.8,0,17.5-.1,26.3-2.6,0-5.3,0-7.9-.1,0,1.9,0,3.8-.1,5.6-3,0-5.9-.2-8.9-.3-.1,2.5-.2,4.9-.3,7.4-11.5-.5-23.1-1.5-34.6-2.9.3-2.4.6-4.9.9-7.3-3-.4-5.9-.8-8.9-1.2.3-1.9.5-3.7.8-5.6-2.6-.4-5.2-.8-7.8-1.2,1.4-8.6,2.8-17.3,4.2-25.9ZM311.6,753.1c.3-1.9.7-3.7,1-5.6-3-.5-6.1-1.1-9.1-1.7.5-2.4,1-4.8,1.5-7.3-.4,0-.7-.1-1.1-.2.4-2,.8-3.9,1.2-5.9,2.9.6,5.9,1.2,8.8,1.7.3-1.8.7-3.7,1-5.5,2,.4,4.1.7,6.1,1.1.6,0,1.2.2,1.8.3,2,.3,4.1.6,6.1,1-.3,1.9-.6,3.7-.8,5.6,3,.4,5.9.8,8.9,1.2-.3,2.4-.6,4.9-.9,7.3.4,0,.7,0,1.1.1-.2,2-.5,4-.7,6-3.1-.4-6.1-.8-9.2-1.2-.3,1.9-.5,3.7-.8,5.6-2.2-.3-4.3-.6-6.5-1-.6,0-1.2-.2-1.9-.3-2.2-.4-4.3-.7-6.5-1.1ZM320,756.2c2.8.4,5.6.9,8.4,1.3.3-1.9.5-3.7.8-5.6,3.1.4,6.1.8,9.2,1.2.3-2.4.6-4.9.9-7.3,11.5,1.4,23.1,2.3,34.7,2.8-.1,2.5-.2,4.9-.3,7.4,3.1.1,6.2.2,9.3.3,0,1.9,0,3.8-.1,5.6,2.8,0,5.6,0,8.4,0,0,8.8,0,17.5,0,26.3-3,0-5.9,0-8.9,0,0,1.9,0,3.8-.1,5.6-3.3,0-6.7-.2-10-.3,0,2.5-.2,4.9-.3,7.4-13-.5-25.9-1.6-38.8-3.1.3-2.4.6-4.9.9-7.3-3.3-.4-6.6-.8-10-1.3.3-1.9.5-3.7.8-5.6-3-.4-5.9-.9-8.8-1.3,1.4-8.6,2.8-17.3,4.1-25.9ZM302,806.5c.3-1.9.7-3.7,1-5.6-3.4-.6-6.8-1.3-10.2-1.9.4-2,.8-4,1.2-5.9,0-.4.2-.9.3-1.3.4-2,.8-4,1.2-5.9,3.3.7,6.6,1.3,9.9,1.9.3-1.9.7-3.7,1-5.6,2.3.4,4.6.8,6.9,1.2.7.1,1.3.2,2,.3,2.3.4,4.6.7,6.9,1.1-.3,1.9-.5,3.7-.8,5.6,3.3.5,6.7.9,10,1.4-.2,2-.5,4-.7,6,0,.4-.1.9-.2,1.3-.2,2-.5,4-.7,6-3.4-.4-6.8-.9-10.3-1.4-.3,1.9-.5,3.7-.8,5.6-2.4-.4-4.8-.7-7.2-1.1-.7-.1-1.4-.2-2.1-.3-2.4-.4-4.8-.8-7.2-1.2ZM391.1,842.5c-3.3,0-6.6,0-9.9-.1,0,1.9,0,3.8-.1,5.6-3.7,0-7.4-.2-11.1-.3-.1,2.5-.2,4.9-.3,7.4-14.4-.6-28.8-1.7-43.1-3.5.3-2.4.6-4.9.9-7.3-3.7-.4-7.4-.9-11.1-1.4.3-1.9.5-3.7.8-5.6-3.3-.5-6.6-1-9.8-1.5,1.4-8.6,2.8-17.3,4.1-25.9,3.1.5,6.2,1,9.4,1.4.3-1.9.5-3.7.8-5.6,3.4.5,6.9.9,10.3,1.3.3-2.4.6-4.9.9-7.3,13,1.6,26,2.6,39,3.1-.1,2.5-.2,4.9-.3,7.4,3.5.1,6.9.2,10.4.3,0,1.9,0,3.8-.1,5.6,3.1,0,6.3,0,9.4.1,0,8.8,0,17.5,0,26.3ZM393.7,814.5c-.8,0-1.5,0-2.3,0-2.4,0-4.8,0-7.2,0,0-1.9,0-3.8,0-5.6-3.4,0-6.9-.1-10.3-.3,0-2,.1-4,.2-6,0-.5,0-.9,0-1.4,0-2,.1-4,.2-6,3.4.1,6.7.2,10.1.3,0-1.9,0-3.8,0-5.6,2.3,0,4.5,0,6.8,0,.7,0,1.4,0,2.1,0,2.3,0,4.5,0,6.8,0,0,1.9,0,3.8,0,5.6,3.4,0,6.7-.2,10.1-.3,0,2,.2,4,.2,6v1.4c.1,2,.2,4,.3,6-3.4.1-6.9.2-10.3.3,0,1.9,0,3.8,0,5.6-2.4,0-4.8,0-7.2,0ZM468.1,837c.3,1.9.5,3.7.8,5.6-3.7.5-7.4,1-11.1,1.5.3,2.4.6,4.9.9,7.3-14.3,1.8-28.7,2.9-43.1,3.6-.1-2.5-.2-4.9-.3-7.4-3.7.2-7.4.3-11.1.4,0-1.9,0-3.8-.1-5.6-3.3,0-6.6.1-9.9.1,0-8.8,0-17.5-.1-26.3,3.1,0,6.3,0,9.4-.1,0-1.9,0-3.8-.1-5.6,3.5,0,6.9-.2,10.4-.3-.1-2.5-.2-4.9-.3-7.4,13-.6,26-1.6,39-3.2.3,2.4.6,4.9.9,7.3,3.4-.4,6.9-.9,10.3-1.4.3,1.9.5,3.7.8,5.6,3.1-.4,6.2-.9,9.4-1.4,1.4,8.6,2.8,17.3,4.2,25.9-3.3.5-6.6,1-9.8,1.5Z"/>
            </g>
          </g>
        </g>
      </g>
    </g>
  </g>
</svg>